<?xml version="1.0" encoding="utf-8"?>
<!-- Generator: Adobe Illustrator 16.0.0, SVG Export Plug-In . SVG Version: 6.00 Build 0)  -->
<!DOCTYPE svg PUBLIC "-//W3C//DTD SVG 1.1//EN" "http://www.w3.org/Graphics/SVG/1.1/DTD/svg11.dtd">
<svg version="1.1" id="Layer_1" xmlns="http://www.w3.org/2000/svg" xmlns:xlink="http://www.w3.org/1999/xlink" x="0px" y="0px"
	 width="100px" height="100px" viewBox="0 0 100 100" enable-background="new 0 0 100 100" xml:space="preserve">
<g>
	<path d="M37.875,27.143h24.2c1.116,0,2.025,0.864,2.025,1.926v2.407H35.85v-2.407C35.85,28.007,36.758,27.143,37.875,27.143z"/>
	<rect x="35.85" y="33.476" width="28.25" height="32.834"/>
	<path d="M35.85,68.31v7.573c0,1.063,0.908,1.927,2.024,1.927h24.2c1.116,0,2.025-0.864,2.025-1.927V68.31H35.85z M49.975,75.726
		c-1.691,0-3.063-1.371-3.063-3.062c0-1.692,1.371-3.063,3.063-3.063s3.063,1.37,3.063,3.063
		C53.038,74.354,51.667,75.726,49.975,75.726z"/>
</g>
</svg>
