<?xml version="1.0" encoding="utf-8"?>
<!-- Generator: Adobe Illustrator 16.0.0, SVG Export Plug-In . SVG Version: 6.00 Build 0)  -->
<!DOCTYPE svg PUBLIC "-//W3C//DTD SVG 1.1//EN" "http://www.w3.org/Graphics/SVG/1.1/DTD/svg11.dtd">
<svg version="1.1" id="Layer_1" xmlns="http://www.w3.org/2000/svg" xmlns:xlink="http://www.w3.org/1999/xlink" x="0px" y="0px"
	 width="100px" height="100px" viewBox="0 0 100 100" enable-background="new 0 0 100 100" xml:space="preserve">
<g>
	<path d="M72.876,74.568c-2.771-2.666-8.477-8.151-13.58-13.021l13.58-13.29V74.568z"/>
	<path d="M39.085,60.858C34.3,65.746,28.917,71.477,26.209,74.377V48.256L39.085,60.858z"/>
	<path d="M47.542,55.374c0.428-0.382,1.023-0.744,1.277-0.818c0.113,0.052,0.423,0.228,1.041,0.804
		c4.714,4.392,16.936,16.135,21.535,20.56H27.507C30.162,73.076,46.125,56.637,47.542,55.374z"/>
	<path d="M49.202,29.092l23.175,16.855L57.849,60.164c-2.665-2.54-5.059-4.81-6.625-6.268c-0.988-0.921-1.678-1.325-2.307-1.35
		c-1.1-0.038-2.447,1.104-2.707,1.335c-1.438,1.283-3.472,3.274-5.723,5.55L26.699,45.937L49.202,29.092z"/>
</g>
</svg>
