<svg id="Layouts" xmlns="http://www.w3.org/2000/svg" viewBox="0 0 30 30"><title>ic_app_market</title><path d="M26.49,6.78a2.3,2.3,0,0,0-1.8-.87H14.31a1.26,1.26,0,0,0,0,2.52H24.43l-.6,2.68H14.31a1.26,1.26,0,1,0,0,2.52h9l-.7,3.15-12,.07L8.82,5.94A2.3,2.3,0,0,0,6.54,4H3.26a1.26,1.26,0,0,0,0,2.52h3.1L8.12,17.44a2.3,2.3,0,0,0,2.28,1.94h0l12.33-.07A2.3,2.3,0,0,0,25,17.5l2-8.78A2.3,2.3,0,0,0,26.49,6.78Z"/><path d="M21.26,20.24a3.3,3.3,0,0,0,0,6.59h.11a3.3,3.3,0,0,0-.11-6.59Zm.11,4.45h-.11a1.15,1.15,0,1,1,1.21-1.1A1.1,1.1,0,0,1,21.38,24.69Z"/><path d="M10.95,20.24a3.3,3.3,0,0,0,0,6.59h.11a3.3,3.3,0,0,0-.11-6.59Zm.11,4.45h-.11a1.15,1.15,0,1,1,1.21-1.1A1.1,1.1,0,0,1,11.06,24.69Z"/></svg>