<svg id="Layouts" xmlns="http://www.w3.org/2000/svg" viewBox="0 0 30 30"><title>ic_healthdate</title><circle cx="15" cy="14.39" r="3.06"/><rect x="12.55" y="6.43" width="4.89" height="1.22" rx="0.46" ry="0.46"/><path d="M18.5,17.71l-1.36-.34a3.67,3.67,0,0,1-4.28,0l-1.36.34a1.84,1.84,0,0,0-1.39,1.78v.71a.92.92,0,0,0,.92.92h8a.92.92,0,0,0,.92-.92v-.71A1.84,1.84,0,0,0,18.5,17.71Z"/><path d="M15,.5A14.5,14.5,0,1,0,29.5,15,14.5,14.5,0,0,0,15,.5ZM22.34,23a1.84,1.84,0,0,1-1.84,1.83h-11A1.84,1.84,0,0,1,7.66,23V7A1.84,1.84,0,0,1,9.49,5.21h11A1.84,1.84,0,0,1,22.34,7Z"/></svg>