<svg id="Layouts" xmlns="http://www.w3.org/2000/svg" viewBox="0 0 30 30"><title>ic_links</title><path d="M25.94,13.63h0l-.43-.12A6.79,6.79,0,0,0,15,5a.25.25,0,0,0,.08.41,8.91,8.91,0,0,1,1.63.84.25.25,0,0,0,.29,0,4.49,4.49,0,0,1,2.78-1A4.53,4.53,0,0,1,21,14.2a.25.25,0,0,0-.19.22,9.18,9.18,0,0,1-.32,1.82.25.25,0,0,0,.05.23.26.26,0,0,0,.22.08,6.79,6.79,0,0,0,3-1.21l1.56.44a2.46,2.46,0,0,1,1.78,2.35v.93a.83.83,0,0,1-.83.83H23.47a.25.25,0,0,0-.23.35,6.94,6.94,0,0,1,.52,1.68.25.25,0,0,0,.25.21h2.26a3.08,3.08,0,0,0,3.07-3.07v-.93A4.68,4.68,0,0,0,25.94,13.63Z"/><path d="M18.6,18.07h0L18,17.9a7.45,7.45,0,1,0-12.43,0L5,18.07A5.11,5.11,0,0,0,1.29,23v1a3.33,3.33,0,0,0,3.33,3.33H19A3.33,3.33,0,0,0,22.31,24V23A5.11,5.11,0,0,0,18.6,18.07Zm-6.78.82a5.12,5.12,0,1,1,5.12-5.12A5.12,5.12,0,0,1,11.82,18.89Zm4.38.92,1.76.5A2.8,2.8,0,0,1,20,23v1a1,1,0,0,1-1,1H4.62a1,1,0,0,1-1-1V23a2.8,2.8,0,0,1,2-2.68l1.76-.5a7.45,7.45,0,0,0,8.78,0Z"/></svg>