<svg id="Layouts" xmlns="http://www.w3.org/2000/svg" viewBox="0 0 30 30"><defs><style>.cls-1{fill:#fff;}</style></defs><title>ic_new</title><circle cx="15" cy="15" r="14.5"/><path class="cls-1" d="M9,18.3a8,8,0,0,0-.53-.89L6.29,14.19c-.16-.25-.36-.6-.56-1,0,.12,0,.12,0,.42s0,.53,0,.72v2.72a9.22,9.22,0,0,0,.07,1.24H4.64A9,9,0,0,0,4.7,17V12.77a6.87,6.87,0,0,0-.07-1.07H5.93a4.54,4.54,0,0,0,.51.88l2.1,3.15c.2.3.46.73.65,1.06,0-.32-.06-.82-.06-1.17V12.85a7.21,7.21,0,0,0-.07-1.14h1.21a7.2,7.2,0,0,0-.07,1.14v4.38a6.23,6.23,0,0,0,.07,1.07Z"/><path class="cls-1" d="M16.23,18.35a7.07,7.07,0,0,0-1.07-.06H12.57c-.5,0-.72,0-1.05,0a6.67,6.67,0,0,0,.07-1.09V12.75a7.31,7.31,0,0,0-.07-1.07c.33,0,.55,0,1.05,0h2.5a8.9,8.9,0,0,0,1.07-.06v1.09a7.56,7.56,0,0,0-1.07-.06H12.69v1.71h2a8.55,8.55,0,0,0,1.08-.06v1.09a6.47,6.47,0,0,0-1.08-.06h-2v2h2.48a7.86,7.86,0,0,0,1.06-.06Z"/><path class="cls-1" d="M22.4,18.3a8.26,8.26,0,0,0-.2-.84l-.89-3.08a10.2,10.2,0,0,1-.24-1.06c-.09.47-.17.8-.25,1.06l-.88,3.08a7,7,0,0,0-.19.84h-1.1c0-.21,0-.21-.22-.85l-1.32-4.75a8.07,8.07,0,0,0-.33-1h1.32a4.58,4.58,0,0,0,.15.89L19,15.75c.06.26.15.68.2,1,.11-.51.17-.75.23-1l.92-3.2a5.17,5.17,0,0,0,.18-.84h1a5.94,5.94,0,0,0,.19.83l.93,3.19c.06.22.1.38.23,1,0-.19,0-.19.09-.48,0-.13.09-.46.11-.53l.77-3.12A4.43,4.43,0,0,0,24,11.7h1.32a7.72,7.72,0,0,0-.32,1l-1.32,4.75c-.06.23-.1.38-.12.46a2,2,0,0,0-.09.41Z"/></svg>