<svg id="Layouts" xmlns="http://www.w3.org/2000/svg" viewBox="0 0 30 30"><title>ic_profile_qrcode</title><rect x="13.4" y="16.6" width="3.2" height="3.2"/><rect x="13.4" y="10.2" width="3.2" height="3.2"/><rect x="8.14" y="8.09" width="4.13" height="4.13"/><rect x="10.2" y="13.4" width="3.2" height="3.2"/><rect x="17.74" y="17.83" width="4.13" height="4.13"/><rect x="16.6" y="13.4" width="3.2" height="3.2"/><path d="M15,.5A14.5,14.5,0,1,0,29.5,15,14.5,14.5,0,0,0,15,.5Zm8,9.7H19.8v3.2H23V23H13.4V19.8H10.2V23H7V19.8h3.2V16.6H7V7h9.6v3.2h3.2V7H23Z"/></svg>