<svg id="Layouts" xmlns="http://www.w3.org/2000/svg" viewBox="0 0 30 30"><title>ic_profile</title><rect x="17.38" y="13.81" width="4.75" height="1.19" rx="0.45" ry="0.45"/><rect x="17.38" y="16.19" width="4.75" height="1.19" rx="0.45" ry="0.45"/><circle cx="12.03" cy="13.44" r="2.6"/><path d="M15,16.26,13.85,16a3.12,3.12,0,0,1-3.64,0l-1.16.29a1.56,1.56,0,0,0-1.18,1.51v.6a.78.78,0,0,0,.78.78h6.75a.78.78,0,0,0,.78-.78v-.6A1.56,1.56,0,0,0,15,16.26Z"/><rect x="17.38" y="11.44" width="4.75" height="1.19" rx="0.45" ry="0.45"/><path d="M15,.5A14.5,14.5,0,1,0,29.5,15,14.5,14.5,0,0,0,15,.5Zm9.5,19.84a1.78,1.78,0,0,1-1.78,1.78H7.28A1.78,1.78,0,0,1,5.5,20.34V9.66A1.78,1.78,0,0,1,7.28,7.88H22.72A1.78,1.78,0,0,1,24.5,9.66Z"/></svg>