<svg id="Layouts" xmlns="http://www.w3.org/2000/svg" viewBox="0 0 30 30"><title>ic_vital</title><path d="M15,.5A14.5,14.5,0,1,0,29.5,15,14.5,14.5,0,0,0,15,.5Zm.61,24a.87.87,0,0,1-1.21,0C6.3,16.68,7,17.36,6.79,17.14h4a.45.45,0,0,0,.43-.3l1.29-3.76,2.67,8a.46.46,0,0,0,.85,0l2.18-5.46.49,1.24a.45.45,0,0,0,.41.24h4.09C22.92,17.47,23.42,17,15.61,24.51Zm8.58-8.59H19.59l-1-2.24a.46.46,0,0,0-.83,0l-2,5.15L13,10.67a.46.46,0,0,0-.86,0l-1.84,5.25H5.81a6.46,6.46,0,0,1-1.22-3.5C4.59,9,6.67,7,10.15,7c2,0,3.94,1.6,4.85,2.5.92-.9,2.82-2.5,4.85-2.5,3.47,0,5.55,2,5.55,5.41A6.42,6.42,0,0,1,24.19,15.91Z"/></svg>